<?xml version="1.0" standalone="no"?>
<!DOCTYPE svg PUBLIC "-//W3C//DTD SVG 20010904//EN"
 "http://www.w3.org/TR/2001/REC-SVG-20010904/DTD/svg10.dtd">
<svg version="1.0" xmlns="http://www.w3.org/2000/svg"
 width="1600.000000pt" height="1600.000000pt" viewBox="0 0 1600.000000 1600.000000"
 preserveAspectRatio="xMidYMid meet">
<metadata>
Created by potrace 1.11, written by Peter Selinger 2001-2013
</metadata>
<g transform="translate(0.000000,1600.000000) scale(0.100000,-0.100000)"
fill="#000000" stroke="none">
<path d="M4928 13646 c-1 -2 -88 -6 -191 -9 -103 -4 -191 -8 -195 -11 -4 -2
-45 -7 -92 -10 -47 -4 -92 -9 -100 -11 -8 -2 -36 -6 -62 -9 -26 -3 -58 -8 -70
-10 -13 -3 -39 -8 -58 -11 -19 -2 -44 -7 -55 -9 -11 -3 -51 -11 -90 -20 -300
-64 -591 -165 -864 -298 -159 -78 -194 -98 -359 -205 -331 -215 -617 -481
-848 -788 -350 -464 -570 -993 -679 -1630 -3 -16 -10 -70 -16 -120 -5 -49 -12
-101 -14 -114 -26 -154 -25 -698 0 -909 2 -15 6 -54 10 -87 26 -243 104 -585
195 -855 104 -310 290 -706 463 -985 125 -202 461 -680 496 -705 4 -3 42 -48
85 -100 281 -341 680 -749 1132 -1157 43 -39 88 -80 100 -90 12 -10 52 -46 90
-79 38 -34 85 -74 104 -90 19 -16 37 -31 40 -34 4 -5 125 -109 260 -224 14
-11 90 -75 170 -141 80 -66 147 -122 150 -125 5 -5 212 -175 614 -505 239
-196 435 -358 530 -439 45 -38 92 -78 106 -90 75 -63 251 -215 291 -250 25
-23 76 -68 113 -101 38 -33 81 -71 96 -85 15 -14 67 -61 115 -105 306 -277
681 -658 921 -936 60 -69 132 -144 160 -167 62 -51 154 -97 236 -119 87 -23
253 -22 338 2 69 19 172 68 204 97 11 10 23 18 27 18 4 0 45 42 90 93 45 50
111 126 148 167 168 190 577 604 772 781 52 47 120 110 153 140 32 30 68 62
80 72 11 10 35 30 51 46 81 75 526 455 700 596 27 22 70 58 95 80 26 22 67 56
91 76 254 207 347 283 365 298 41 35 407 337 444 366 112 89 690 581 710 604
3 4 41 38 85 76 44 39 82 73 85 76 3 3 55 50 115 104 134 121 662 648 765 764
41 46 80 89 85 95 6 6 37 43 70 81 33 39 62 72 65 75 3 3 34 41 70 85 35 44
67 82 70 85 18 16 222 296 303 415 272 401 480 811 615 1210 43 127 105 334
117 394 2 9 8 36 14 61 5 25 12 56 14 70 3 14 8 36 11 50 3 14 8 37 10 53 3
15 10 53 15 85 6 31 13 80 16 107 8 72 16 136 20 163 22 134 22 754 1 868 -2
11 -7 46 -10 79 -7 67 -17 140 -22 170 -2 10 -6 35 -9 55 -3 20 -7 45 -9 55
-24 116 -40 187 -57 252 -12 43 -27 101 -34 128 -60 222 -187 528 -321 767
-55 99 -195 316 -238 369 -12 14 -34 43 -51 65 -94 121 -323 364 -430 454
-167 140 -327 257 -480 347 -123 73 -326 178 -425 218 -36 15 -78 33 -95 41
-75 35 -453 151 -550 170 -11 2 -54 10 -95 19 -162 33 -168 34 -375 60 -31 4
-148 14 -250 20 -70 5 -374 5 -425 1 -19 -2 -67 -6 -105 -10 -39 -3 -82 -9
-95 -11 -14 -3 -45 -8 -70 -11 -25 -3 -65 -10 -90 -16 -25 -5 -56 -12 -70 -14
-143 -26 -458 -130 -608 -199 -29 -14 -55 -25 -58 -25 -11 0 -308 -152 -335
-171 -15 -10 -31 -19 -35 -19 -10 0 -136 -78 -279 -173 -195 -130 -352 -251
-575 -440 -81 -69 -231 -210 -338 -317 l-114 -115 -142 140 c-175 173 -208
203 -371 341 -545 462 -1098 775 -1645 931 -69 19 -136 37 -150 39 -14 3 -33
7 -42 10 -10 3 -30 7 -45 10 -16 2 -50 9 -78 14 -98 18 -212 31 -330 36 -66 3
-125 7 -132 9 -6 2 -13 2 -15 1z"/>
</g>
</svg>
